<?xml version="1.0" encoding="UTF-8" standalone="no"?>
<svg
   xmlns:dc="http://purl.org/dc/elements/1.1/"
   xmlns:cc="http://creativecommons.org/ns#"
   xmlns:rdf="http://www.w3.org/1999/02/22-rdf-syntax-ns#"
   xmlns:svg="http://www.w3.org/2000/svg"
   xmlns="http://www.w3.org/2000/svg"
   version="1.1"
   id="star"
   viewBox="0 0 548.95 572"
   height="100%"
   width="100%">
  <defs
     id="defs4" />
  <g
     transform="translate(-177.52,-118.36)"
     id="layer1">
    <path
       d="M 460.01,118.36 500,269.59 626.58,177.69 570.05,323.55 726.48,323.6 595,408.37 721.53,500.36 565.34,491.66 613.63,640.44 492.38,541.6 443.99,690.36 404,539.13 277.42,631.03 333.95,485.17 177.52,485.12 309,400.35 182.47,308.36 l 156.19,8.7 -48.29,-148.78 121.25,98.84 z"
       id="path4174" />
    <path
       transform="translate(177.52,118.36)"
       id="path4176"
       d="m 247.49,495.62 c -10.3,-39.28 -19.28,-72.48 -19.94,-73.8 -0.76,-1.5 -23.48,13.78 -61.89,41.64 -33.38,24.2 -60.99,43.7 -61.36,43.34 -0.36,-0.36 10.85,-30.36 24.93,-66.64 14.07,-36.28 26.22,-67.98 26.99,-70.44 l 1.41,-4.48 -75.705,-0.52 -75.7024,-0.52 61.9364,-40 c 34.071,-22 62.201,-40.9 62.531,-42 0.32,-1.1 -26.74,-21.8 -60.149,-46 C 37.135,212 10.01,191.98 10.264,191.7 c 0.253,-0.28 33.961,1.39 74.907,3.71 40.949,2.32 74.949,3.71 75.569,3.09 0.62,-0.62 -9.19,-32.89 -21.81,-71.71 -12.63,-38.822 -22.7,-70.894 -22.4,-71.272 0.3,-0.376 26.29,20.324 57.75,46.002 31.45,25.68 57.99,46.96 58.99,47.3 1.5,0.51 42.76,-122.128 47.28,-140.5301 1.18,-4.7598 4.74,6.5641 18.3,58.0001 22.76,86.45 22.44,85.37 25.48,84.2 1.44,-0.54 28.86,-20.06 60.94,-43.35 32.08,-23.3 58.7,-42.008 59.12,-41.574 0.44,0.432 -11.24,31.802 -25.96,69.714 l -26.76,68.92 76.86,1 76.84,1 -63.92,41 c -35.14,22.56 -63.66,41.9 -63.36,43 0.32,1.1 27.7,21.76 60.86,45.9 33.16,24.14 60.1,44.06 59.86,44.26 -0.24,0.2 -33.94,-1.5 -74.9,-3.76 -40.96,-2.28 -75,-3.6 -75.66,-2.94 -0.66,0.64 9.18,32.96 21.86,71.8 12.68,38.84 22.8,70.88 22.48,71.2 -0.32,0.32 -26.5,-20.58 -58.18,-46.44 -31.68,-25.86 -58.3,-47.02 -59.16,-47.02 -0.84,0 -4.26,8.32 -7.58,18.5 -3.34,10.18 -13.8,42.32 -23.3,71.46 -9.48,29.12 -17.44,53.16 -17.7,53.4 -0.24,0.26 -8.88,-31.68 -19.18,-70.94 z" />
  </g>
  <metadata
     id="metadata4178">
    <rdf:RDF>
      <cc:Work
         rdf:about="">
        <dc:title></dc:title>
      </cc:Work>
    </rdf:RDF>
  </metadata>
</svg>
